<svg width="92" height="24" viewBox="0 0 92 24" fill="none" xmlns="http://www.w3.org/2000/svg">
<rect width="92" height="24" rx="5" fill="#35D18F"/>
<rect width="92" height="24" rx="5" fill="black" fill-opacity="0.2"/>
<path d="M14.3567 14.56L8.59672 12.52V11.08L14.3567 9.04V10.396L10.2287 11.8L14.3567 13.24V14.56ZM15.5525 16.96L18.6605 9.016L18.8045 8.404H20.3765L17.2685 16.372L17.1245 16.96H15.5525ZM21.5811 14.56V13.24L25.7091 11.8L21.5811 10.396V9.04L27.3411 11.08V12.52L21.5811 14.56Z" fill="black"/>
<path d="M34.4016 16L31.0536 8.956H32.7336L34.9896 13.816L35.3136 14.68H35.4216L35.7336 13.816L38.0136 8.956H39.6456L39.4536 9.676L36.3216 16H34.4016ZM41.1072 9.868C40.8112 9.868 40.5952 9.808 40.4592 9.688C40.3232 9.568 40.2552 9.368 40.2552 9.088C40.2552 8.8 40.3192 8.6 40.4472 8.488C40.5832 8.368 40.8032 8.308 41.1072 8.308C41.4112 8.308 41.6312 8.368 41.7672 8.488C41.9032 8.6 41.9712 8.8 41.9712 9.088C41.9712 9.36 41.9032 9.56 41.7672 9.688C41.6312 9.808 41.4112 9.868 41.1072 9.868ZM40.3752 16V10.624H41.8392V16H40.3752ZM43.4075 16V10.624H44.3915L44.8715 10.864C45.2075 10.8 45.6115 10.744 46.0835 10.696C46.5555 10.648 47.0955 10.624 47.7035 10.624H48.3035C48.7035 10.624 49.0115 10.68 49.2275 10.792C49.4435 10.904 49.5955 11.044 49.6835 11.212C49.7795 11.38 49.8355 11.552 49.8515 11.728C49.8755 11.896 49.8875 12.04 49.8875 12.16V16H48.4235V12.136C48.4235 11.816 48.2315 11.656 47.8475 11.656H45.2315C45.0795 11.656 44.9795 11.672 44.9315 11.704C44.8915 11.728 44.8715 11.8 44.8715 11.92V16H43.4075ZM52.7348 16C52.3348 16 52.0268 15.948 51.8108 15.844C51.5948 15.74 51.4388 15.608 51.3428 15.448C51.2548 15.288 51.1988 15.12 51.1748 14.944C51.1588 14.768 51.1508 14.608 51.1508 14.464V12.16C51.1508 12.04 51.1588 11.896 51.1748 11.728C51.1988 11.552 51.2548 11.38 51.3428 11.212C51.4388 11.044 51.5948 10.904 51.8108 10.792C52.0348 10.68 52.3428 10.624 52.7348 10.624H55.3148C55.8428 10.624 56.2548 10.676 56.5508 10.78C56.8548 10.876 57.0668 11.036 57.1868 11.26C57.3148 11.484 57.3788 11.784 57.3788 12.16V13.936H55.2788C54.5588 13.936 53.9708 13.92 53.5148 13.888C53.0668 13.856 52.7668 13.836 52.6148 13.828V14.488C52.6068 14.808 52.7988 14.968 53.1908 14.968H53.8028C54.2348 14.968 54.6548 14.964 55.0628 14.956C55.4788 14.94 55.8588 14.924 56.2028 14.908C56.5468 14.884 56.8228 14.864 57.0308 14.848L57.5108 15.628C57.5108 15.876 56.7228 16 55.1468 16H52.7348ZM52.6148 12.904H55.9148V12.136C55.9148 11.976 55.8948 11.864 55.8548 11.8C55.8228 11.736 55.7188 11.696 55.5428 11.68C55.3668 11.664 55.0668 11.656 54.6428 11.656H53.1908C52.8068 11.656 52.6148 11.816 52.6148 12.136V12.904ZM60.1762 16C59.7762 16 59.4682 15.948 59.2522 15.844C59.0362 15.74 58.8802 15.608 58.7842 15.448C58.6962 15.288 58.6402 15.12 58.6162 14.944C58.6002 14.768 58.5922 14.608 58.5922 14.464V12.16C58.5922 12.04 58.6002 11.896 58.6162 11.728C58.6402 11.552 58.6962 11.38 58.7842 11.212C58.8802 11.044 59.0362 10.904 59.2522 10.792C59.4762 10.68 59.7842 10.624 60.1762 10.624H62.7562C63.2842 10.624 63.6962 10.676 63.9922 10.78C64.2962 10.876 64.5082 11.036 64.6282 11.26C64.7562 11.484 64.8202 11.784 64.8202 12.16V13.936H62.7202C62.0002 13.936 61.4122 13.92 60.9562 13.888C60.5082 13.856 60.2082 13.836 60.0562 13.828V14.488C60.0482 14.808 60.2402 14.968 60.6322 14.968H61.2442C61.6762 14.968 62.0962 14.964 62.5042 14.956C62.9202 14.94 63.3002 14.924 63.6442 14.908C63.9882 14.884 64.2642 14.864 64.4722 14.848L64.9522 15.628C64.9522 15.876 64.1642 16 62.5882 16H60.1762ZM60.0562 12.904H63.3562V12.136C63.3562 11.976 63.3362 11.864 63.2962 11.8C63.2642 11.736 63.1602 11.696 62.9842 11.68C62.8082 11.664 62.5082 11.656 62.0842 11.656H60.6322C60.2482 11.656 60.0562 11.816 60.0562 12.136V12.904ZM68.2416 16C67.6336 16 67.2176 15.872 66.9936 15.616C66.7696 15.36 66.6576 14.976 66.6576 14.464V11.656H65.6736V10.624H66.1776C66.3296 10.624 66.4376 10.6 66.5016 10.552C66.5736 10.504 66.6256 10.408 66.6576 10.264L66.8976 8.98H68.1216V10.624H70.6176V11.656H68.1216V14.476C68.1216 14.676 68.1696 14.808 68.2656 14.872C68.3616 14.936 68.5056 14.968 68.6976 14.968H70.3896L70.5096 15.88C70.3416 15.904 70.0856 15.932 69.7416 15.964C69.3976 15.988 69.0216 16 68.6136 16H68.2416ZM71.5794 16V8.224H73.0434V10.864C73.3794 10.8 73.7834 10.744 74.2554 10.696C74.7274 10.648 75.2674 10.624 75.8754 10.624H76.4754C76.8754 10.624 77.1834 10.68 77.3994 10.792C77.6154 10.904 77.7674 11.044 77.8554 11.212C77.9514 11.38 78.0074 11.552 78.0234 11.728C78.0474 11.896 78.0594 12.04 78.0594 12.16V16H76.5954V12.136C76.5954 11.816 76.4034 11.656 76.0194 11.656H73.4034C73.2514 11.656 73.1514 11.672 73.1034 11.704C73.0634 11.728 73.0434 11.8 73.0434 11.92V16H71.5794ZM80.9907 16C80.3827 16 79.9427 15.86 79.6707 15.58C79.3987 15.292 79.2627 14.9 79.2627 14.404C79.2627 13.884 79.4027 13.484 79.6827 13.204C79.9707 12.924 80.4067 12.784 80.9907 12.784H81.6027C82.2027 12.784 82.7427 12.8 83.2227 12.832C83.7027 12.864 84.0987 12.896 84.4107 12.928V12.136C84.4107 12.064 84.4027 11.992 84.3867 11.92C84.3707 11.84 84.3227 11.776 84.2427 11.728C84.1627 11.68 84.0267 11.656 83.8347 11.656H83.2347C82.3627 11.656 81.6347 11.672 81.0507 11.704C80.4667 11.728 80.0707 11.752 79.8627 11.776L79.7307 10.864C79.7307 10.752 80.0347 10.684 80.6427 10.66C81.2507 10.636 82.2667 10.624 83.6907 10.624H84.2907C84.6907 10.624 84.9987 10.68 85.2147 10.792C85.4307 10.904 85.5827 11.044 85.6707 11.212C85.7667 11.38 85.8227 11.552 85.8387 11.728C85.8627 11.896 85.8747 12.04 85.8747 12.16V16H84.8907L84.4227 15.76C84.0867 15.816 83.6827 15.872 83.2107 15.928C82.7387 15.976 82.1987 16 81.5907 16H80.9907ZM81.3027 14.968H84.0507C84.2267 14.968 84.3307 14.952 84.3627 14.92C84.3947 14.888 84.4107 14.788 84.4107 14.62V13.696H81.3027C81.0867 13.696 80.9347 13.748 80.8467 13.852C80.7667 13.956 80.7267 14.12 80.7267 14.344C80.7267 14.568 80.7747 14.728 80.8707 14.824C80.9667 14.92 81.1107 14.968 81.3027 14.968Z" fill="white"/>
</svg>
